# xmcd
#
# Track frame offsets: 
#        150
#        22749
#        37152
#        53734
#        68820
#        83199
#        98835
#        109684
#        120279
#        135560
#        153986
#        166765
#        183155
#        201921
#        214148
#        226695
#
# Disc length: 3183 seconds
#
# Revision: 2
# Processed by: cddbd v1.5.2PL0 Copyright (c) Steve Scherf et al.
# Submitted via: ExactAudioCopyFreeDBPlugin 1.0
#
DISCID=c40c6d10
DTITLE=The Gino Marinello Orchestra - 1989 - Electric Melodies, Guitar
DTITLE=Masterpieces
DYEAR=1989
DGENRE=Electronic
TTITLE0=Private Investigations
TTITLE1=Samba Pa Ti
TTITLE2=Apache
TTITLE3=Telstar
TTITLE4=Ghostriders In The Sky
TTITLE5=Albatross
TTITLE6=FBI
TTITLE7=Rebel Rouser
TTITLE8=Theme From Deerhunter
TTITLE9=Guitar Man
TTITLE10=Red River Rock
TTITLE11=Bilitis
TTITLE12=Europe
TTITLE13=Goldfinger
TTITLE14=Dance On
TTITLE15=Reveille Rock
EXTD=YEAR: 1989
EXTT0=
EXTT1=
EXTT2=
EXTT3=
EXTT4=
EXTT5=
EXTT6=
EXTT7=
EXTT8=
EXTT9=
EXTT10=
EXTT11=
EXTT12=
EXTT13=
EXTT14=
EXTT15=
PLAYORDER=
